<svg width="1257" height="1199" viewBox="0 0 1257 1199" fill="none" xmlns="http://www.w3.org/2000/svg">
<path fill-rule="evenodd" clip-rule="evenodd" d="M958.928 139.193C854.58 73.9915 735.977 42.1785 619.133 42.3574C725.235 44.9025 831.202 74.0227 926.199 134.559C1189.61 300.328 1261.67 635.306 1085.97 881.722C911.32 1128.19 555.745 1193.38 293.406 1027.66C35.211 864.241 -39.4501 539.814 122.382 294.886C-55.9635 552.887 20.8638 899.768 296.657 1073.52C573.459 1248.39 947.213 1180.81 1129.8 922.993C1312.38 665.161 1235.74 314.07 958.931 139.202L958.928 139.193ZM528.39 146.844C481.902 259.655 404.371 282.824 280.589 272.065C398.148 255.969 444.788 258.019 528.39 146.844ZM448.181 206.053C448.181 206.053 426.813 43.4766 318.716 14.2759L306.393 28.6068C306.393 28.6068 392.392 5.807 437.296 211.965L448.181 206.053Z" fill="#1ABA00" fill-opacity="0.4"/>
</svg>
