<svg width="1220" height="1220" viewBox="0 0 1220 1220" fill="none" xmlns="http://www.w3.org/2000/svg">
<rect width="1220" height="1220" fill="black"/>
<path fill-rule="evenodd" clip-rule="evenodd" d="M940.928 150.193C836.58 84.9915 717.977 53.1785 601.133 53.3574C707.235 55.9025 813.202 85.0227 908.199 145.559C1171.61 311.328 1243.67 646.306 1067.97 892.722C893.32 1139.19 537.745 1204.38 275.406 1038.66C17.211 875.241 -57.4501 550.814 104.382 305.886C-73.9635 563.887 2.86378 910.768 278.657 1084.52C555.459 1259.39 929.213 1191.81 1111.8 933.993C1294.38 676.161 1217.74 325.07 940.931 150.202L940.928 150.193ZM510.39 157.844C463.902 270.655 386.371 293.824 262.589 283.065C380.148 266.969 426.788 269.019 510.39 157.844ZM430.181 217.053C430.181 217.053 408.813 54.4766 300.716 25.2759L288.393 39.6068C288.393 39.6068 374.392 16.807 419.296 222.965L430.181 217.053Z" fill="#1ABA00" fill-opacity="0.4"/>
</svg>
